<svg xmlns="http://www.w3.org/2000/svg" xmlns:xlink="http://www.w3.org/1999/xlink" viewBox="0 0 302.2 359.23"><defs><style>.cls-1{fill:url(#linear-gradient);}.cls-2,.cls-4,.cls-6{fill:#fff;}.cls-2{fill-opacity:0.25;}.cls-3{fill:#0e0e0e;}.cls-5{fill:#ed1c24;}.cls-6{font-size:18.28px;font-family:Gilroy-Medium;font-weight:500;letter-spacing:0.3em;}.cls-7{letter-spacing:0.27em;}</style><linearGradient id="linear-gradient" x1="29.78" y1="269.13" x2="257.51" y2="82.53" gradientUnits="userSpaceOnUse"><stop offset="0.05" stop-color="#00aeef"/><stop offset="0.08" stop-color="#0a94dc"/><stop offset="0.12" stop-color="#1575c5"/><stop offset="0.17" stop-color="#1e5cb2"/><stop offset="0.22" stop-color="#2549a4"/><stop offset="0.29" stop-color="#2a3b9a"/><stop offset="0.36" stop-color="#2d3394"/><stop offset="0.51" stop-color="#2e3192"/><stop offset="0.57" stop-color="#2b3a99"/><stop offset="0.68" stop-color="#2252aa"/><stop offset="0.81" stop-color="#1479c7"/><stop offset="0.96" stop-color="#00aeef"/></linearGradient></defs><g id="Layer_2" data-name="Layer 2"><g id="Sketch"><rect class="cls-1" x="8.46" y="52" width="257.88" height="257.88" rx="128.94"/><path class="cls-2" d="M86.34,277.67s-4.47,3.7-13.67-3.82S62,250.69,62,250.69s1.67-14.55-10-27.84S39,206.3,44,193.59c1.17-2.93,1.92-6.27-3.18-8.19a4.94,4.94,0,0,1-3-2.68A31.52,31.52,0,0,0,29.12,176c-2.35-1.51-3.1-5.1-3.43-6.86s-4.27-21.23-1.51-30.76S33.3,114.5,33.3,114.5,48.26,91.76,60,84.07l-1.08,2.84a11,11,0,0,0,5.6-4.43h-.92a15.08,15.08,0,0,1,3.51-3.59,16,16,0,0,1,4.1-1.84l-2,2.84,1,.84.76-.25.25,1.17-7,6.68a4,4,0,0,0,3.26-1.08c1.51-1.42,3.52-3.1,3.52-3.1l.67,1.18s-2.43,5.93-2.51,8.77-3.26,7-6.19,8.2l-.92-.59V99.62l-1.09-.33s-4.36,1.17-6.11,7.94c0,0,2.6,2.76,1.35,8.61l.92.33,6.27-10.86s5.6-9.62,12-.51l1.84,20.57s-1.67,6.6-7.1,6.77c-2.18.25-6.11-1-6.11-1s-6.77,1.5-9.53,9.61l-11,19.82s-1.5-1.34-3.84-7.86c-.34-.84-5.86-2.68-9.37,5.93,0,0-1.5,5.44.84,8.11,0,0,1.5.09,3.34-2.25s2.18-1.93,2.18-1.93,1.17.09.92,2.09S38.65,177,38.65,177s1.75,6.68,5.18,4.93,9.11-6.14,16.3-1c0,0,2.84,1.69,5.85,7l8.53,10.45s2,2,7.27.92,28.09-2.18,12,21.73a17.06,17.06,0,0,0,.5,8.53s-.83,5.27-4.26,6.77c0,0-3.68.76-5.19,7.78,0,0-.5,3.26-4.18,8.36,0,0-5.1,7.69-4.43,9.7s2,3.67,1.09,7.6c0,0,1.25,4.35,4.6,5.19S86.2,274.21,86.34,277.67Z"/><path class="cls-2" d="M111.09,97.7a4.38,4.38,0,0,0,1.5-1.16,3,3,0,0,1,1.76-.88,3,3,0,0,0,.94-2.76s0-.69-1.51-1.06c0,0,.26-.41-.57-.94,0,0-.34-.41-1,.37s-1.13.72-1.13.72a9.89,9.89,0,0,1-1.6-.12c-1.22-.16-2.23,1.24-2.17,2.37s-.5,3,1.2,3.62A2.48,2.48,0,0,0,111.09,97.7Z"/><path class="cls-2" d="M86,94.45s-1.25,2.75-.83,4.42,1,4.85,4.6,5.27,6.43-3.52,6.43-3.85a52.6,52.6,0,0,1,2.93-6.06c.54-.8,2-3,7.69-5.23s6.27-6.85,6.77-13c0,0-.37-1.71,3.22-5.14,0,0,.75-.33,1.57-3.8,0,0,.15-1.53-.88-1.49a5.3,5.3,0,0,0-1.25.53l-.63-.11s.25-1.67-.67-1.76a5.57,5.57,0,0,0-3.2,1.15l-.23-.71-.87.09s-1.66,1.67-2.32,1.75c0,0-1,.3-1.45-.39l-.31-.15A8.86,8.86,0,0,0,103,67.35a48.47,48.47,0,0,1-7,3.8c-.36,0-6,3.27-5.86,5.36,0,0,.09.5,2.12.1,0,0,2-.4,1.08,1.76S91,83.51,91,83.51s-.37,3.68-1.48,5.31S86,94.45,86,94.45Z"/><path class="cls-2" d="M71.05,96.82s-1.41,2.23.35,3.35,5.11-.62,5.11-.62,2.88-1.54,5.08-7.68c0-.85.15-3.61-.66-4.45S79.88,81.9,85,77.2A41.88,41.88,0,0,1,97.17,70s7-3.35,7.4-4.1a8.36,8.36,0,0,0,1-1.38,16.45,16.45,0,0,0-5.11,1.41,11.26,11.26,0,0,1-3.73.5l-7.46,3.38-2.64.44-5.89,2.7s-1.16.44-.47-.56c0,0,1.19-.88-.19-.47,0,0-7,3.48-7.4,5.73a6.86,6.86,0,0,0,3.2-.55s-1.35,2-1.07,2.31c0,0,.66.63,4.33-1.26,0,0,1.85-.62.56.79s-5.45,5-5.45,5-3.48,2.86-2.19,5.24c0,0,1,.91,2.38-.63,0,0,2.19-.88,1,1.26Z"/><path class="cls-2" d="M266.19,174.59l-.71,1.17-1.07-.24-2.63-4.21s-5.46-.13-6-.88-3.39-7.52-3.5-10.66-2.95-12.54-3.52-13.16-6.9-7.9-12-6.71c0,0-2.13-.13-1.13,9.21,0,0,2,6.84-.31,11h-1.26a17.17,17.17,0,0,1-6.26-9.53s-4-9.84-9.35-11.47a13.36,13.36,0,0,0-9.65.76s-5.45,1.81-8.72-2.45c0,0-2.7-1.26-4.13.32,0,0,.87,3.56,5.7,4.19,0,0,11.17-.5,10.35,5,0,0-1.32,8.9-4.65,11.22s-7.27,4.07-13.41-2.57l-3.77-8.34s-3.26-5.2-7.14-2.81c0,0-.94,2.45,2.06,5.49a17.55,17.55,0,0,1,4.08,7.11s1.2,5.08,9.6,5.89c0,0,12.16-2.94,10.34,5.14,0,0,0,9.21-2.57,13.42,0,0-4.08,9.84-3.76,12.35s1.38,7.9,1.38,7.9.75,4.14-1.57,6l-5.39,7.65s-1.32,17.62-1.95,17.49c0,0-8.27,7.47-12.85,7.71s-8.28,1.38-9.84-6.52-2.13-8.21-5.46-13.35l-3.25-6.65s-.45-2.63,2.19-6c0,0,1.06-2.13-.76-5.21s-6.51-7.39-6.71-11.34l.63-4.58s.69-2.56-3.26-2.76-14.61,0-14.61,0-5.32,4.58-14.67,4.15c0,0-7.33.61-9.91-12.55s9.72-30.23,9.72-30.23,7.91-13.1,21.51-7.71l7.14,2.64s1.89.69,9.16-2.32c0,0,3.57-2.51,10-.19a10.47,10.47,0,0,0,3.82.19c1.26-.38,2.5-.43,4.13-3.58,0,0-.18-4.76-5.82-3.76,0,0-1.89,2.33-3.52,2.76s-8.27-2.32-8.27-2.32a14.4,14.4,0,0,0-6,2s-4.33,2.57-6.9,1.75a29.39,29.39,0,0,1-6.33-3.57s-3.2-1.25-6.46,1.76-4.77,5.64-8.84,6.33-8.53-4.52-4.83-9.54c0,0,1.63-2.63,6.27-3.25,0,0,4-1.31-.06-5.39,0,0-7.47-.25-8.66-2.76s-1.18-5.65,0-9,3.08-9,6.53-8.72l6.08,10.73s3.2,3.19,4.39-.76c0,0,1.09-2.76,2.43-3.32s3.52-5.08-1.49-5.27-5.83.51-5.08-6.46c0,0,4.45-13.29,11.09-16,0,0,8.91-.19,14.87,3,0,0,1.44.75,2.82-2s1.63-5,5.2-4.63c0,0,1.39.25,2-.51,0,0-.88-2.38-2.08-3.13l-1.43-1.63a6.36,6.36,0,0,1,5.77,1.32l4.39,5.39,2,1.56L180.7,78l-9-9s-4.33-2.89-3.83-5.83a12.49,12.49,0,0,0-4.63-1.06s-7.34,1.56-11-3.08c0,0,7.52.25,9.58,1.06l11.23,2.45,8.15,1.57-.57-.87,6.47,1.63-3.95-3.71,3.28.53a129.2,129.2,0,0,1,42.07,28.1c1.9,1.89,3.74,3.85,5.51,5.86a64.75,64.75,0,0,1,3.19,6c4,8.79,7.32,12.42,7.32,12.42s5.34,7.59,5.71,10.73-1.19,4.51-1.19,4.51-2.26,4.26,1.82,9,3.26,8.91,3.26,8.91-.87,6.46.07,8.16a4.81,4.81,0,0,0,1.94,2.13l3.44-7.91a6.88,6.88,0,0,1,1.58,4.58,3.46,3.46,0,0,0,2.25,3.57,10.35,10.35,0,0,0,.58-1.1A129.14,129.14,0,0,1,266.19,174.59Z"/><path class="cls-2" d="M263.89,173.19s.13,4.45-.44,4.58-.88,3.18-.88,3.18l-.75,5.47s-2.7,6.77-2.82,8.34-.57,8.59-.5,9.34-2.39,12.17-2.07,13.8,3.72-5.77,3.72-5.77l1.42-5,.19.69S266.08,193.25,263.89,173.19Z"/><path class="cls-3" d="M115.33,190.54c21.06,9.75,49.1,22,70.4,31.71,17.88,8.84,35.76,18.23,54.91,24.06a79.44,79.44,0,0,0,16.64,3.76,97.14,97.14,0,0,0,17,.94c20.73-.73,32.49-11.89,24.45-32.82-6.46-15.93-19-28.63-32.43-39,13.76,10.06,26.52,22.75,33.1,38.76,4.66,11.29,3.91,24.38-8.25,30.28-10.62,5-22.73,4.07-34,2.61a81.19,81.19,0,0,1-16.73-3.9A247.91,247.91,0,0,1,201,230.19c-4.41-2.27-10.84-5.71-15.28-7.8-21.31-9.76-49.22-22-70.34-31.85Z"/><path class="cls-3" d="M100.07,176.7C71.89,155.91-9.08,93.13,2.09,54.61,4.77,46.05,13.21,41,21.54,39.11,49,33.43,79.38,44.74,103.63,57,98.55,54.59,93.35,52.1,88.08,50,67.43,41.91,43.9,35,21.72,39.84,10.05,42.51,1.15,50.51,1.87,63.16,4.71,102.21,70,153.39,100.07,176.7Z"/><path class="cls-3" d="M110.46,174.88c17-29.95,115.8-134.1,151.3-118.13,22.11,11.3,4.39,66.8-1.3,85.57,5.22-18.37,22.44-74.14,1-84.9-34.42-15.31-133.57,88-151,117.46Z"/><path class="cls-3" d="M93.81,190.54s-.07.09-.07.05l.07-.1.14-.19.29-.37c1.23-1.57,3.17-3.91,4.38-5.5,0,0,.06,0,0,0l-.32.34c-.37.38-1.56,1.65-1.95,2.07-6.39,6.74-17,18-23.38,24.73a79.13,79.13,0,0,0-9.67,11.56c-10.81,15.14-82.43,124-20.36,97,13.83-6.12,26.6-14.36,39.15-22.74-12.4,8.63-25,17.13-38.87,23.37-65.83,28.25,11.51-89.15,24.3-104,8.61-9.07,20.12-21,28.78-30l1.31-1.37.65-.68.33-.34c0-.06.09,0,0,0l0,0c-1.21,1.54-3.17,3.92-4.38,5.42-.17.23-.35.44-.5.66,0,0,.05,0,.07-.05Z"/><path class="cls-3" d="M216.8,282.55c-10,29.27-42.21,99.51-77.26,55.85-7.07-9-12.15-19.4-16.59-29.92-3.09-7.69-5-16.65-7.18-24.65a244.24,244.24,0,0,1-7.14-42.12c-.81-9.91-2.35-24.25-2.6-34.09l-.85-17.08c.29,5.9,1,20,1.32,25.61,2,22.35,3.92,45.85,9.87,67.53,2.24,7.95,4.16,16.92,7.25,24.53,4.46,10.4,9.59,20.71,16.65,29.61,34.51,42.92,65.93-27,76.53-55.27Z"/><path class="cls-3" d="M102.9,173.19c-2.61-34.92,2.86-70.1,11.07-104,5.22-19.93,16.68-58.88,36.55-67.86,27.81-11.13,47.95,50.35,54.59,69.86C198.37,52.49,177.59-9,150.83,2.07c-12.18,5.45-20.2,22.41-25.17,34.2-8.83,21.54-14.21,44.4-18.11,67.32-3.65,23-6.26,46.33-4.65,69.6Z"/><circle class="cls-4" cx="105.83" cy="179.95" r="15.71"/><circle class="cls-5" cx="105.83" cy="179.95" r="6.11"/><circle class="cls-5" cx="6.11" cy="77.05" r="6.11"/><circle class="cls-5" cx="19.13" cy="300.7" r="6.11"/><circle class="cls-5" cx="250.29" cy="56.15" r="6.11"/><path class="cls-4" d="M184.14,185v7H164.2V160.28h19.72v7H171.45v5.26h11.33v6.89H171.45V185Z"/><path class="cls-4" d="M90,180.22a16.51,16.51,0,1,1,16.5,16.5A16.36,16.36,0,0,1,90,180.22Zm25.75,0a9.25,9.25,0,1,0-9.25,9.43A9,9,0,0,0,115.7,180.22Z"/><circle class="cls-5" cx="139.27" cy="12.72" r="6.11"/><path class="cls-5" d="M12.23,134.89c23.71,28.84,58.1,47.81,94.48,55,5.49,1,11.26,1.92,16.83,2.42,2.45.34,6,.57,8.49.66l6.38.36,10.66,0c4.13-.1,8.66-.45,12.81-.64l12.78-1.35c4.79-.8,12.24-1.76,17-2.81,25.52-4.82,50.18-13,74.7-22.36a281.85,281.85,0,0,1-64.54,27.49q-12.78,3.57-25.9,5.86c-3.22.44-10.12,1.42-13.21,1.78-4.33.28-9,.74-13.32.92-3.13,0-10.36.21-13.38,0C87.48,201,37.38,177.45,12.23,134.89Z"/><polygon class="cls-5" points="266.4 167.49 217.42 159.24 239.78 174.43 241.43 179.07 234.77 205.79 266.4 167.49"/><circle class="cls-5" cx="106.45" cy="180.1" r="6.22"/><text class="cls-6" transform="translate(127.03 214.1)">Ene<tspan class="cls-7" x="47.1" y="0">r</tspan><tspan x="58.08" y="0">gy</tspan></text><path class="cls-4" d="M87.24,180.22c0,9-6.67,15.87-15.42,15.87H59.13V164.35H71.82C80.57,164.35,87.24,171.24,87.24,180.22Zm-7,0c0-5.44-3.45-8.89-8.44-8.89H66.38V189.1h5.44C76.81,189.1,80.26,185.66,80.26,180.22Z"/><path class="cls-4" d="M158.76,196.09h-7.25V177.64L143.3,191.1h-.81l-8.21-13.46v18.45H127V164.35h7.25l8.62,14.1,8.61-14.1h7.25Z"/><path class="cls-4" d="M219.41,181.13c0,9.7-6.75,15.59-15.64,15.59-10,0-17.13-7.34-17.13-16.45a16.45,16.45,0,0,1,16.63-16.55A16.25,16.25,0,0,1,217.15,171L211,174.51a9.53,9.53,0,0,0-17.09,5.8c0,5.39,3.81,9.34,10,9.34,4.22,0,7-1.86,8.12-4.9H203.5v-6.34h15.91Z"/><circle class="cls-5" cx="296.09" cy="241.38" r="6.11"/><circle class="cls-5" cx="161.07" cy="353.12" r="6.11"/></g></g></svg>